<svg version="1.1" id="Layer_1" xmlns="http://www.w3.org/2000/svg" xmlns:xlink="http://www.w3.org/1999/xlink" x="0px" y="0px"
	 width="100%" viewBox="0 0 210 210" enable-background="new 0 0 210 210" xml:space="preserve">
<path fill="#1FAED7" opacity="1.000000" stroke="none" 
	d="
M133.000000,211.000000 
	C88.666672,211.000000 44.833340,211.000000 1.000006,211.000000 
	C1.000004,141.000000 1.000004,71.000015 1.000002,1.000015 
	C70.999992,1.000010 140.999985,1.000010 210.999969,1.000005 
	C210.999985,70.999985 210.999985,140.999969 211.000000,210.999969 
	C185.166672,211.000000 159.333328,211.000000 133.000000,211.000000 
M125.504730,88.247192 
	C122.341087,88.245949 119.162834,88.052345 116.017456,88.291435 
	C111.954880,88.600235 110.302048,87.103317 110.491570,82.911392 
	C110.753036,77.128288 110.557129,71.324501 110.557129,65.217415 
	C107.965904,65.217415 106.054810,65.217415 103.353142,65.217415 
	C103.353142,70.897034 103.069160,76.361794 103.436935,81.782349 
	C103.771919,86.719551 102.249435,88.464256 97.055595,88.363167 
	C80.743858,88.045700 64.420868,88.352058 48.104870,88.174232 
	C44.154346,88.131172 42.810249,89.411102 43.004032,93.339516 
	C43.282616,98.987068 43.074051,104.658653 43.073761,110.319977 
	C43.073502,115.416908 43.073708,120.513840 43.073708,125.567924 
	C45.837021,125.567924 47.725731,125.567924 50.100349,125.567924 
	C50.100349,117.511726 50.092438,109.879272 50.102726,102.246826 
	C50.111790,95.522224 50.120739,95.498665 56.587673,95.490738 
	C69.908417,95.474419 83.229218,95.473885 96.549965,95.490967 
	C103.326439,95.499657 103.337868,95.523262 103.350426,102.544182 
	C103.364059,110.166046 103.353508,117.787949 103.353508,125.700821 
	C105.971405,125.700821 107.888596,125.700821 110.216995,125.700821 
	C110.336456,123.714500 110.526245,121.923378 110.537231,120.131157 
	C110.577049,113.637512 110.707703,107.138748 110.503120,100.651405 
	C110.379028,96.716354 111.965027,95.402664 115.794327,95.438232 
	C130.279404,95.572800 144.766907,95.553680 159.252472,95.448364 
	C162.662460,95.423569 164.013901,96.633720 163.930023,100.114761 
	C163.757614,107.270416 163.919876,114.433540 163.870300,121.593071 
	C163.852646,124.142365 163.970001,126.111885 167.470871,126.084015 
	C171.103012,126.055084 170.901382,123.823303 170.898697,121.418030 
	C170.888260,112.093506 170.695679,102.762756 170.985031,93.447182 
	C171.119308,89.124741 169.440414,88.117325 165.465790,88.176056 
	C152.480881,88.367905 139.491364,88.247856 125.504730,88.247192 
M118.240227,22.308884 
	C110.430832,22.309689 102.619644,22.408113 94.812881,22.265146 
	C91.507904,22.204620 89.962624,23.175766 90.042061,26.776630 
	C90.225243,35.080475 90.191269,43.392490 90.058983,51.698219 
	C90.007118,54.954285 91.283600,56.059071 94.480827,56.001575 
	C102.786003,55.852222 111.097412,55.853790 119.402634,56.002354 
	C122.563309,56.058891 123.916786,55.043388 123.862671,51.744816 
	C123.726433,43.439217 123.699776,35.127251 123.878517,26.823202 
	C123.954803,23.279242 122.523270,21.948427 118.240227,22.308884 
M93.030579,167.609039 
	C101.833252,167.623444 110.637184,167.557327 119.437927,167.695038 
	C122.610718,167.744705 123.909325,166.638779 123.852005,163.364471 
	C123.706665,155.062378 123.682533,146.753403 123.860977,138.452591 
	C123.938248,134.858414 122.422157,133.923752 119.097878,133.992554 
	C110.962784,134.160919 102.818916,134.176224 94.684692,133.988220 
	C91.204285,133.907806 89.991501,135.159485 90.060936,138.600067 
	C90.225121,146.735306 90.010338,154.878601 90.205322,163.012482 
	C90.241547,164.523758 91.477791,166.006256 93.030579,167.609039 
M51.482903,134.055084 
	C46.167244,134.056335 40.846668,134.196289 35.537727,134.008072 
	C32.225750,133.890671 30.711723,134.823776 30.800919,138.454590 
	C31.004833,146.755295 30.979013,155.066727 30.810019,163.369003 
	C30.742476,166.687180 32.071663,167.720383 35.210411,167.673309 
	C43.348167,167.551285 51.491341,167.518051 59.627460,167.686188 
	C63.168724,167.759369 64.252144,166.318893 64.141647,162.948807 
	C63.951237,157.141098 64.092567,151.322540 64.092918,145.508545 
	C64.093597,134.054871 64.093102,134.054871 51.482903,134.055084 
M162.515320,134.055084 
	C159.523132,134.060684 156.468872,133.713974 153.565872,134.225632 
	C152.185623,134.468887 150.072296,136.314178 150.033539,137.491135 
	C149.738205,146.457748 149.793869,155.440186 149.981110,164.412674 
	C150.003082,165.465698 151.469055,167.373154 152.296326,167.390182 
	C162.377777,167.597458 172.464981,167.524841 183.071289,167.524841 
	C183.071289,156.873611 183.173935,146.928085 182.913849,136.992050 
	C182.887589,135.989151 180.715942,134.279831 179.461304,134.204285 
	C174.160721,133.885223 168.830368,134.060593 162.515320,134.055084 
z"/>
<path fill="#A4D5DB" opacity="1.000000" stroke="none" 
	d="
M126.004166,88.247482 
	C139.491364,88.247856 152.480881,88.367905 165.465790,88.176056 
	C169.440414,88.117325 171.119308,89.124741 170.985031,93.447182 
	C170.695679,102.762756 170.888260,112.093506 170.898697,121.418030 
	C170.901382,123.823303 171.103012,126.055084 167.470871,126.084015 
	C163.970001,126.111885 163.852646,124.142365 163.870300,121.593071 
	C163.919876,114.433540 163.757614,107.270416 163.930023,100.114761 
	C164.013901,96.633720 162.662460,95.423569 159.252472,95.448364 
	C144.766907,95.553680 130.279404,95.572800 115.794327,95.438232 
	C111.965027,95.402664 110.379028,96.716354 110.503120,100.651405 
	C110.707703,107.138748 110.577049,113.637512 110.537231,120.131157 
	C110.526245,121.923378 110.336456,123.714500 110.216995,125.700821 
	C107.888596,125.700821 105.971405,125.700821 103.353508,125.700821 
	C103.353508,117.787949 103.364059,110.166046 103.350426,102.544182 
	C103.337868,95.523262 103.326439,95.499657 96.549965,95.490967 
	C83.229218,95.473885 69.908417,95.474419 56.587673,95.490738 
	C50.120739,95.498665 50.111790,95.522224 50.102726,102.246826 
	C50.092438,109.879272 50.100349,117.511726 50.100349,125.567924 
	C47.725731,125.567924 45.837021,125.567924 43.073708,125.567924 
	C43.073708,120.513840 43.073502,115.416908 43.073761,110.319977 
	C43.074051,104.658653 43.282616,98.987068 43.004032,93.339516 
	C42.810249,89.411102 44.154346,88.131172 48.104870,88.174232 
	C64.420868,88.352058 80.743858,88.045700 97.055595,88.363167 
	C102.249435,88.464256 103.771919,86.719551 103.436935,81.782349 
	C103.069160,76.361794 103.353142,70.897034 103.353142,65.217415 
	C106.054810,65.217415 107.965904,65.217415 110.557129,65.217415 
	C110.557129,71.324501 110.753036,77.128288 110.491570,82.911392 
	C110.302048,87.103317 111.954880,88.600235 116.017456,88.291435 
	C119.162834,88.052345 122.341087,88.245949 126.004166,88.247482 
z"/>
<path fill="#9FD4DB" opacity="1.000000" stroke="none" 
	d="
M118.701569,22.310770 
	C122.523270,21.948427 123.954803,23.279242 123.878517,26.823202 
	C123.699776,35.127251 123.726433,43.439217 123.862671,51.744816 
	C123.916786,55.043388 122.563309,56.058891 119.402634,56.002354 
	C111.097412,55.853790 102.786003,55.852222 94.480827,56.001575 
	C91.283600,56.059071 90.007118,54.954285 90.058983,51.698219 
	C90.191269,43.392490 90.225243,35.080475 90.042061,26.776630 
	C89.962624,23.175766 91.507904,22.204620 94.812881,22.265146 
	C102.619644,22.408113 110.430832,22.309689 118.701569,22.310770 
M116.826401,32.961636 
	C115.640640,31.748470 114.555405,29.634859 113.250458,29.489168 
	C109.160446,29.032537 104.957512,29.036196 100.863983,29.474632 
	C99.512970,29.619333 97.432404,31.505117 97.260368,32.803497 
	C95.167107,48.601017 95.736038,49.169830 111.392761,48.977192 
	C111.889626,48.971077 112.390724,48.926418 112.882782,48.973534 
	C115.987434,49.270782 116.956642,47.663013 116.870239,44.806072 
	C116.760139,41.165379 116.844940,37.518795 116.826401,32.961636 
z"/>
<path fill="#A2D5DB" opacity="1.000000" stroke="none" 
	d="
M92.595390,167.555542 
	C91.477791,166.006256 90.241547,164.523758 90.205322,163.012482 
	C90.010338,154.878601 90.225121,146.735306 90.060936,138.600067 
	C89.991501,135.159485 91.204285,133.907806 94.684692,133.988220 
	C102.818916,134.176224 110.962784,134.160919 119.097878,133.992554 
	C122.422157,133.923752 123.938248,134.858414 123.860977,138.452591 
	C123.682533,146.753403 123.706665,155.062378 123.852005,163.364471 
	C123.909325,166.638779 122.610718,167.744705 119.437927,167.695038 
	C110.637184,167.557327 101.833252,167.623444 92.595390,167.555542 
M109.360901,160.714233 
	C116.857521,160.674240 116.860863,160.674240 116.864838,153.002396 
	C116.866295,150.184402 117.228195,147.289200 116.678520,144.580856 
	C116.402344,143.220108 114.551498,141.337234 113.240349,141.186081 
	C109.313721,140.733383 105.295616,141.156799 101.325653,140.971695 
	C98.016235,140.817413 96.818909,142.276932 97.060547,145.399734 
	C97.162537,146.717758 97.051949,148.050995 97.072151,149.376801 
	C97.270294,162.379242 95.271255,160.533142 109.360901,160.714233 
z"/>
<path fill="#A4D6DB" opacity="1.000000" stroke="none" 
	d="
M51.978088,134.055115 
	C64.093102,134.054871 64.093597,134.054871 64.092918,145.508545 
	C64.092567,151.322540 63.951237,157.141098 64.141647,162.948807 
	C64.252144,166.318893 63.168724,167.759369 59.627460,167.686188 
	C51.491341,167.518051 43.348167,167.551285 35.210411,167.673309 
	C32.071663,167.720383 30.742476,166.687180 30.810019,163.369003 
	C30.979013,155.066727 31.004833,146.755295 30.800919,138.454590 
	C30.711723,134.823776 32.225750,133.890671 35.537727,134.008072 
	C40.846668,134.196289 46.167244,134.056335 51.978088,134.055115 
M47.497963,141.008286 
	C36.521378,141.171951 37.968632,139.593567 37.821911,150.459152 
	C37.810677,151.291306 37.820026,152.123764 37.820549,152.956070 
	C37.825420,160.701584 37.825466,160.701584 45.726891,160.706314 
	C57.147865,160.713165 57.178532,160.713043 57.135307,149.469574 
	C57.098648,139.934082 57.989491,141.117432 47.497963,141.008286 
z"/>
<path fill="#A4D6DB" opacity="1.000000" stroke="none" 
	d="
M163.013123,134.055115 
	C168.830368,134.060593 174.160721,133.885223 179.461304,134.204285 
	C180.715942,134.279831 182.887589,135.989151 182.913849,136.992050 
	C183.173935,146.928085 183.071289,156.873611 183.071289,167.524841 
	C172.464981,167.524841 162.377777,167.597458 152.296326,167.390182 
	C151.469055,167.373154 150.003082,165.465698 149.981110,164.412674 
	C149.793869,155.440186 149.738205,146.457748 150.033539,137.491135 
	C150.072296,136.314178 152.185623,134.468887 153.565872,134.225632 
	C156.468872,133.713974 159.523132,134.060684 163.013123,134.055115 
M160.841064,160.693085 
	C164.674149,160.691315 168.541290,160.979034 172.322250,160.534180 
	C173.685944,160.373734 175.793930,158.552902 175.921646,157.319839 
	C176.365631,153.033081 176.320190,148.651413 175.938843,144.352142 
	C175.833527,143.164917 174.015579,141.313721 172.809570,141.163574 
	C157.119553,139.210022 156.475159,139.853317 156.802658,155.643524 
	C156.819931,156.476379 156.530640,157.553162 156.941437,158.089325 
	C157.723404,159.109924 158.908585,159.821609 160.841064,160.693085 
z"/>
<path fill="#26B0D7" opacity="1.000000" stroke="none" 
	d="
M116.836060,33.418190 
	C116.844940,37.518795 116.760139,41.165379 116.870239,44.806072 
	C116.956642,47.663013 115.987434,49.270782 112.882782,48.973534 
	C112.390724,48.926418 111.889626,48.971077 111.392761,48.977192 
	C95.736038,49.169830 95.167107,48.601017 97.260368,32.803497 
	C97.432404,31.505117 99.512970,29.619333 100.863983,29.474632 
	C104.957512,29.036196 109.160446,29.032537 113.250458,29.489168 
	C114.555405,29.634859 115.640640,31.748470 116.836060,33.418190 
z"/>
<path fill="#26B0D7" opacity="1.000000" stroke="none" 
	d="
M108.887276,160.713913 
	C95.271255,160.533142 97.270294,162.379242 97.072151,149.376801 
	C97.051949,148.050995 97.162537,146.717758 97.060547,145.399734 
	C96.818909,142.276932 98.016235,140.817413 101.325653,140.971695 
	C105.295616,141.156799 109.313721,140.733383 113.240349,141.186081 
	C114.551498,141.337234 116.402344,143.220108 116.678520,144.580856 
	C117.228195,147.289200 116.866295,150.184402 116.864838,153.002396 
	C116.860863,160.674240 116.857521,160.674240 108.887276,160.713913 
z"/>
<path fill="#22AFD7" opacity="1.000000" stroke="none" 
	d="
M47.980698,141.008301 
	C57.989491,141.117432 57.098648,139.934082 57.135307,149.469574 
	C57.178532,160.713043 57.147865,160.713165 45.726891,160.706314 
	C37.825466,160.701584 37.825420,160.701584 37.820549,152.956070 
	C37.820026,152.123764 37.810677,151.291306 37.821911,150.459152 
	C37.968632,139.593567 36.521378,141.171951 47.980698,141.008301 
z"/>
<path fill="#22AFD7" opacity="1.000000" stroke="none" 
	d="
M160.383698,160.677322 
	C158.908585,159.821609 157.723404,159.109924 156.941437,158.089325 
	C156.530640,157.553162 156.819931,156.476379 156.802658,155.643524 
	C156.475159,139.853317 157.119553,139.210022 172.809570,141.163574 
	C174.015579,141.313721 175.833527,143.164917 175.938843,144.352142 
	C176.320190,148.651413 176.365631,153.033081 175.921646,157.319839 
	C175.793930,158.552902 173.685944,160.373734 172.322250,160.534180 
	C168.541290,160.979034 164.674149,160.691315 160.383698,160.677322 
z"/>
</svg>