<svg version="1.1" id="Layer_1" xmlns="http://www.w3.org/2000/svg" xmlns:xlink="http://www.w3.org/1999/xlink" x="0px" y="0px"
	 width="100%" viewBox="0 0 960 235" enable-background="new 0 0 960 235" xml:space="preserve">
<path fill="#1EAED7" opacity="1.000000" stroke="none"
	d="
M695.000000,236.000000
	C463.333344,236.000000 232.166672,236.000000 1.000000,236.000000
	C1.000000,157.666672 1.000000,79.333336 1.000000,1.000000
	C321.000000,1.000000 641.000000,1.000000 961.000000,1.000000
	C961.000000,79.333336 961.000000,157.666672 961.000000,236.000000
	C872.500000,236.000000 784.000000,236.000000 695.000000,236.000000
M915.788452,151.897369
	C920.045410,154.096909 923.336182,152.325363 924.661377,148.457565
	C928.686035,136.710846 932.285583,124.814255 935.838074,112.912567
	C936.892029,109.381454 935.242493,106.125427 931.710754,105.643440
	C929.490906,105.340492 926.755615,107.122673 924.634033,108.541481
	C923.646179,109.202110 923.508240,111.204506 923.087097,112.628876
	C921.582153,117.719070 920.120850,122.822159 918.372681,128.853134
	C917.186401,126.579201 916.378906,125.337746 915.859009,123.985687
	C911.927063,113.760185 907.950439,103.549606 904.217224,93.251221
	C903.028015,89.970741 901.303406,87.514992 897.749146,87.279953
	C893.939392,87.028030 892.229065,89.832825 891.036255,92.932487
	C888.653748,99.123726 886.355957,105.347664 883.959106,111.533287
	C881.795471,117.116920 879.546265,122.667419 876.810425,129.552155
	C872.896179,116.466797 869.532898,104.999878 866.019897,93.578995
	C864.396118,88.300240 861.371643,86.345421 857.458008,87.644012
	C853.817627,88.851929 852.566589,92.166199 854.123352,97.189995
	C858.894958,112.588486 863.676270,127.984894 868.621338,143.328110
	C869.886230,147.252808 870.162231,152.642014 875.916626,152.705246
	C881.752441,152.769363 882.407959,147.361404 884.027649,143.340057
	C888.458130,132.339615 892.760620,121.287598 897.502502,109.271141
	C900.766663,117.551933 903.503662,124.838242 906.506897,132.013092
	C909.247925,138.561707 912.277466,144.989548 915.788452,151.897369
M304.857086,122.366188
	C304.851288,113.042580 304.855621,103.718941 304.834595,94.395370
	C304.826599,90.839531 303.346436,88.213951 299.707428,87.425468
	C296.261993,86.678940 294.084625,88.507439 292.529724,91.434914
	C289.024475,98.034470 285.464417,104.605125 281.896210,111.171005
	C277.584503,119.105042 273.241302,127.021988 268.615051,135.489365
	C260.882324,120.798721 253.522263,106.874504 246.227570,92.916115
	C244.430542,89.477509 242.328278,86.370361 237.888275,87.461418
	C233.389999,88.566788 233.121902,92.390694 233.132462,96.218964
	C233.162766,107.207405 233.132080,118.195999 233.147308,129.184509
	C233.155396,135.010437 233.107864,140.839264 233.278397,146.661133
	C233.388428,150.417419 235.793442,152.488647 239.323792,152.711075
	C242.808624,152.930618 244.886139,150.757523 245.496552,147.405273
	C245.820724,145.624908 245.834763,143.772949 245.842407,141.952698
	C245.876282,133.893616 245.857071,125.834335 245.857071,117.775124
	C247.534210,118.957420 248.350571,120.304741 249.056335,121.707703
	C253.386932,130.316299 257.470520,139.061035 262.153137,147.472778
	C263.418060,149.745132 266.499603,152.409637 268.698761,152.367401
	C270.938324,152.324371 273.787262,149.577103 275.187561,147.290253
	C278.301422,142.205002 280.607208,136.631271 283.374268,131.325439
	C285.846161,126.585625 288.495056,121.938118 291.065857,117.249878
	C291.467987,117.364815 291.870087,117.479752 292.272186,117.594681
	C292.272186,121.025864 292.039490,124.477211 292.334473,127.882843
	C292.661133,131.654816 294.843811,134.110718 298.834656,134.034561
	C302.704926,133.960693 304.201843,131.151657 304.773438,127.803856
	C305.022430,126.345673 304.842285,124.814209 304.857086,122.366188
M777.354065,92.215332
	C774.666016,92.940788 771.278015,92.871925 769.405029,94.522346
	C758.341858,104.270813 754.871399,116.693024 759.485962,130.574234
	C764.277100,144.986847 774.701721,153.031784 790.109619,154.248245
	C804.077637,155.351044 818.618835,146.413757 823.852295,133.370026
	C829.559998,119.144508 825.338623,102.005409 813.895203,93.209076
	C811.032471,91.008553 807.987549,90.969238 805.305908,93.472961
	C802.520996,96.073204 802.725769,99.067749 804.967102,101.927612
	C805.986938,103.228889 807.334106,104.267761 808.446350,105.503403
	C816.018005,113.914719 815.843079,126.830635 808.072998,134.889969
	C799.682251,143.593018 786.854065,144.411209 777.959656,136.810593
	C767.725769,128.065384 767.399536,113.949211 777.197754,103.838539
	C781.861816,99.025764 782.016418,96.694267 777.354065,92.215332
M356.787018,135.749725
	C355.034027,133.168976 352.712769,130.804794 351.631653,127.968002
	C347.978058,118.381126 350.388062,110.114708 357.846893,103.116867
	C360.790283,100.355408 362.140228,97.014244 358.780182,93.568275
	C355.651398,90.359451 352.565094,91.552780 349.520325,93.948860
	C337.831238,103.147476 333.960754,122.685776 341.307068,135.635437
	C353.032867,156.304840 376.669556,160.594940 395.155701,145.409058
	C410.781586,132.572830 409.739471,104.159683 393.027191,93.082260
	C391.371033,91.984520 388.037659,92.008812 386.242859,92.954666
	C384.684753,93.775749 383.289856,96.743813 383.494446,98.576416
	C383.716858,100.568588 385.647888,102.558647 387.215729,104.180580
	C395.756042,113.015640 396.231689,126.056999 388.194763,134.749527
	C379.837402,143.788589 367.055542,144.417160 356.787018,135.749725
M448.453308,92.032921
	C432.198669,103.301994 428.658173,125.344467 440.631409,140.730652
	C455.476929,159.807861 483.754852,158.739426 497.144470,138.595352
	C506.531372,124.473198 503.000854,103.397148 489.547821,93.278473
	C486.603271,91.063751 483.695709,91.033012 481.040100,93.697876
	C478.271851,96.475761 478.759827,99.363060 481.125031,102.119392
	C482.099152,103.254547 483.263641,104.224113 484.277008,105.328186
	C492.206329,113.967293 491.860840,126.887527 483.487823,135.471985
	C475.461029,143.701477 462.359833,144.183548 453.669281,136.569183
	C443.549194,127.702309 443.579407,113.956841 453.340179,103.480621
	C455.101929,101.589729 456.457886,98.193680 456.118286,95.754692
	C455.684875,92.641678 452.637177,91.119041 448.453308,92.032921
M539.740356,152.768860
	C545.294067,152.773987 546.763306,149.165375 546.829224,144.535156
	C546.924072,137.880447 546.856018,131.223404 546.856506,124.567360
	C546.857056,116.277061 546.856628,107.986763 546.856628,99.677231
	C552.500854,99.677231 557.679565,99.124283 562.694763,99.794502
	C572.565063,101.113533 577.105408,106.216026 578.524841,116.112312
	C579.608582,123.667892 577.602112,130.212357 572.557129,135.906036
	C569.928528,138.872543 569.105957,142.068558 572.368225,145.093689
	C575.259216,147.774567 578.723755,147.209869 581.918091,143.832092
	C590.674866,134.572266 592.686890,123.425705 590.266785,111.433914
	C587.764099,99.033073 580.099060,90.639961 567.584229,88.576302
	C558.496704,87.077797 549.063293,87.460388 539.783386,87.444366
	C535.693054,87.437302 534.216125,90.817917 534.195068,94.407959
	C534.095459,111.380257 534.149109,128.353485 534.157898,145.326370
	C534.159729,148.803101 535.356201,151.499771 539.740356,152.768860
M73.499733,120.485382
	C76.496925,120.485809 79.494110,120.486572 82.491302,120.486610
	C95.352272,120.486771 95.352264,120.486702 95.352280,133.477081
	C95.352287,139.203751 95.352287,144.930405 95.352287,150.758179
	C98.192596,150.758179 99.972008,150.758179 102.202766,150.758179
	C102.328598,148.762466 102.526581,146.980560 102.538109,145.197479
	C102.581161,138.537094 102.658958,131.874435 102.528183,125.216461
	C102.461319,121.812157 103.801048,120.442924 107.231262,120.463631
	C121.884117,120.552071 136.538742,120.584686 151.190628,120.434914
	C155.044342,120.395531 156.020035,122.049927 155.931595,125.555328
	C155.755310,132.544510 155.909195,139.541489 155.873215,146.534973
	C155.860413,149.026855 155.850616,151.100494 159.409088,151.086441
	C162.989243,151.072281 162.911636,148.942108 162.905319,146.482407
	C162.881348,137.157562 162.706909,127.826950 162.983719,118.510231
	C163.109543,114.275406 161.591949,113.120697 157.532104,113.170189
	C142.048386,113.358963 126.560982,113.246719 111.074959,113.244629
	C102.557114,113.243484 102.556587,113.241425 102.554359,104.479034
	C102.553162,99.749443 102.554146,95.019859 102.554146,90.609581
	C97.022057,88.901337 94.967461,90.294113 95.297218,95.236053
	C95.573753,99.380402 95.094482,103.578140 95.418411,107.715553
	C95.772903,112.243256 93.870003,113.372993 89.620163,113.322845
	C73.137352,113.128349 56.649960,113.338341 40.166389,113.178802
	C36.317547,113.141556 34.736839,114.242577 35.002682,118.276108
	C35.308647,122.918365 35.072433,127.596329 35.072216,132.258789
	C35.071926,138.360123 35.072144,144.461456 35.072144,150.594482
	C37.793167,150.594482 39.681892,150.594482 42.104042,150.594482
	C42.104042,142.070709 42.296604,133.937454 42.024979,125.819725
	C41.883507,121.591736 43.479198,120.316544 47.524055,120.423004
	C55.844059,120.642006 64.173943,120.485588 73.499733,120.485382
M635.553467,110.513885
	C635.553467,107.095390 635.553467,103.676888 635.553467,99.753746
	C644.148865,99.753746 651.943054,99.960098 659.719482,99.677101
	C664.457153,99.504684 667.033936,96.709267 666.635498,92.903664
	C666.178406,88.537933 663.096375,87.187157 659.246399,87.162949
	C649.765381,87.103317 640.282043,87.039207 630.802917,87.187775
	C625.077148,87.277512 623.026062,89.460831 623.001282,95.159523
	C622.942017,108.799210 622.980042,122.439339 622.981689,136.079285
	C622.982117,139.406021 622.862366,142.739563 623.034851,146.057678
	C623.229126,149.795120 625.003540,152.677048 629.018311,152.709732
	C632.851379,152.740921 635.013062,150.254440 635.420593,146.436615
	C635.578857,144.953979 635.547058,143.447754 635.548462,141.952225
	C635.558044,131.805435 635.553345,121.658646 635.553467,110.513885
M695.961792,148.240356
	C698.251770,149.780228 700.371033,152.148834 702.872070,152.664108
	C706.546753,153.421127 710.494995,152.902863 714.325134,152.837601
	C718.182861,152.771896 720.747803,150.928253 721.029785,146.949341
	C721.341797,142.546509 718.423462,140.771088 714.602844,140.210266
	C712.542114,139.907776 710.425903,139.983261 708.020386,139.873947
	C708.020386,124.615181 707.971802,109.813873 708.051025,95.013252
	C708.073792,90.760971 706.575134,87.516396 702.128174,87.314911
	C697.639465,87.111519 695.615662,90.364311 695.608521,94.499855
	C695.578125,112.144531 695.707336,129.789490 695.961792,148.240356
M113.954964,80.808945
	C114.567253,79.764809 115.694000,78.728973 115.711006,77.675240
	C115.855751,68.703178 115.755844,59.727528 115.825951,50.753704
	C115.849983,47.677082 114.016815,47.289963 111.592957,47.300426
	C103.283302,47.336300 94.971230,47.422169 86.664597,47.259094
	C83.197266,47.191029 81.972633,48.483757 82.043251,51.923721
	C82.210342,60.063919 82.202171,68.211884 82.046791,76.352539
	C81.982071,79.743645 83.102196,81.094421 86.632790,81.015083
	C95.436859,80.817230 104.247856,80.927185 113.954964,80.808945
M115.813705,176.498520
	C115.811401,172.166733 115.706482,167.831726 115.841675,163.504227
	C115.937119,160.449188 115.053543,158.922714 111.627991,158.992966
	C103.134560,159.167145 94.633842,159.138275 86.138924,159.006073
	C83.050293,158.958008 82.050781,160.243454 82.083664,163.166199
	C82.179230,171.662094 82.195564,180.160782 82.078804,188.656143
	C82.036171,191.758331 83.410126,192.714066 86.301773,192.683105
	C94.797775,192.592133 103.296272,192.579269 111.791862,192.687180
	C114.851761,192.726044 115.943581,191.431534 115.836342,188.489975
	C115.702881,184.829590 115.810005,181.160446 115.813705,176.498520
M22.856636,167.569641
	C22.859703,174.548157 22.958519,181.528549 22.820814,188.504288
	C22.762060,191.480652 23.831715,192.700119 26.845352,192.664261
	C35.151890,192.565460 43.461620,192.549927 51.767494,192.674469
	C54.955696,192.722275 56.199539,191.567703 56.139126,188.309906
	C55.985111,180.005005 55.997417,171.693939 56.131355,163.388367
	C56.182705,160.204453 55.081081,158.932571 51.804935,159.008377
	C44.664146,159.173584 37.516800,159.052689 30.372133,159.054306
	C22.879307,159.056015 22.879307,159.058868 22.856636,167.569641
M142.018265,160.910019
	C141.961472,170.055405 141.999420,179.202881 141.797745,188.345078
	C141.724655,191.657745 143.077362,192.713440 146.217560,192.668564
	C154.366150,192.552094 162.518463,192.560440 170.667313,192.668320
	C173.702042,192.708496 175.238510,191.902069 175.164230,188.465637
	C174.980972,179.986649 175.015640,171.499695 175.147446,163.018829
	C175.195374,159.933960 173.942673,158.977753 171.000534,159.020660
	C162.519394,159.144318 154.035004,159.034515 145.552826,159.114578
	C144.478088,159.124741 143.408890,159.720093 142.018265,160.910019
M303.737762,150.121475
	C305.319916,146.698196 305.323578,143.251450 301.567719,141.699356
	C299.546173,140.863983 296.154480,141.058472 294.447662,142.279434
	C291.843658,144.142212 291.600708,147.549896 293.711304,150.303207
	C296.607147,154.080887 299.960510,153.096680 303.737762,150.121475
M552.989746,146.528320
	C554.118225,151.801682 558.539734,154.674164 561.875488,151.841675
	C563.637573,150.345413 564.964050,147.085632 564.685608,144.846054
	C564.475830,143.158951 561.568298,140.905502 559.565552,140.543823
	C556.130310,139.923477 553.697021,142.072205 552.989746,146.528320
M930.979736,97.511505
	C933.468445,99.807068 936.467468,100.551765 938.985901,98.272255
	C940.442078,96.954292 941.456604,94.320862 941.385925,92.325012
	C941.259521,88.758072 937.592041,86.620674 934.205566,87.476784
	C930.050354,88.527260 928.795532,91.787254 930.979736,97.511505
M735.003296,152.551132
	C736.625244,150.515427 738.932068,148.678421 739.602783,146.366730
	C739.982422,145.058075 738.043579,142.154968 736.481323,141.450287
	C734.733154,140.661743 731.673889,140.809616 730.211548,141.911819
	C728.750549,143.013031 727.851440,145.839386 727.967102,147.836456
	C728.170105,151.342773 730.969482,152.638611 735.003296,152.551132
M651.773865,126.246613
	C654.835083,121.897652 654.648865,117.721405 650.767212,116.384422
	C648.697327,115.671478 644.935669,116.067032 643.786499,117.473274
	C642.432617,119.129913 642.136414,122.854149 643.076111,124.905907
	C644.563110,128.152985 647.928467,128.461685 651.773865,126.246613
M795.338501,96.895729
	C798.691956,94.323082 799.416504,90.804291 796.588623,88.000778
	C795.070618,86.495865 791.388794,85.964745 789.191223,86.642006
	C786.021301,87.618912 785.094849,90.885986 786.511353,94.020973
	C788.087402,97.508942 790.873230,98.795006 795.338501,96.895729
M473.872406,90.018250
	C471.304596,85.743492 467.908203,84.429314 464.682281,86.692360
	C461.673279,88.803284 460.751068,91.969078 463.015808,94.804626
	C464.298279,96.410339 467.170959,97.750839 469.168274,97.558449
	C472.655792,97.222511 474.440430,94.515556 473.872406,90.018250
M373.777496,85.974625
	C371.473755,86.792801 368.437012,86.968681 367.030914,88.573402
	C364.676331,91.260689 365.485626,94.600266 368.494568,96.715775
	C371.526794,98.847649 374.701355,98.283569 376.763855,95.328957
	C379.292847,91.706078 378.321045,88.470154 373.777496,85.974625
z"/>
<path fill="#F8FCFE" opacity="1.000000" stroke="none"
	d="
M915.484131,151.683990
	C912.277466,144.989548 909.247925,138.561707 906.506897,132.013092
	C903.503662,124.838242 900.766663,117.551933 897.502502,109.271141
	C892.760620,121.287598 888.458130,132.339615 884.027649,143.340057
	C882.407959,147.361404 881.752441,152.769363 875.916626,152.705246
	C870.162231,152.642014 869.886230,147.252808 868.621338,143.328110
	C863.676270,127.984894 858.894958,112.588486 854.123352,97.189995
	C852.566589,92.166199 853.817627,88.851929 857.458008,87.644012
	C861.371643,86.345421 864.396118,88.300240 866.019897,93.578995
	C869.532898,104.999878 872.896179,116.466797 876.810425,129.552155
	C879.546265,122.667419 881.795471,117.116920 883.959106,111.533287
	C886.355957,105.347664 888.653748,99.123726 891.036255,92.932487
	C892.229065,89.832825 893.939392,87.028030 897.749146,87.279953
	C901.303406,87.514992 903.028015,89.970741 904.217224,93.251221
	C907.950439,103.549606 911.927063,113.760185 915.859009,123.985687
	C916.378906,125.337746 917.186401,126.579201 918.372681,128.853134
	C920.120850,122.822159 921.582153,117.719070 923.087097,112.628876
	C923.508240,111.204506 923.646179,109.202110 924.634033,108.541481
	C926.755615,107.122673 929.490906,105.340492 931.710754,105.643440
	C935.242493,106.125427 936.892029,109.381454 935.838074,112.912567
	C932.285583,124.814255 928.686035,136.710846 924.661377,148.457565
	C923.336182,152.325363 920.045410,154.096909 915.484131,151.683990
z"/>
<path fill="#F7FCFE" opacity="1.000000" stroke="none"
	d="
M304.857056,122.841110
	C304.842285,124.814209 305.022430,126.345673 304.773438,127.803856
	C304.201843,131.151657 302.704926,133.960693 298.834656,134.034561
	C294.843811,134.110718 292.661133,131.654816 292.334473,127.882843
	C292.039490,124.477211 292.272186,121.025864 292.272186,117.594681
	C291.870087,117.479752 291.467987,117.364815 291.065857,117.249878
	C288.495056,121.938118 285.846161,126.585625 283.374268,131.325439
	C280.607208,136.631271 278.301422,142.205002 275.187561,147.290253
	C273.787262,149.577103 270.938324,152.324371 268.698761,152.367401
	C266.499603,152.409637 263.418060,149.745132 262.153137,147.472778
	C257.470520,139.061035 253.386932,130.316299 249.056335,121.707703
	C248.350571,120.304741 247.534210,118.957420 245.857071,117.775124
	C245.857071,125.834335 245.876282,133.893616 245.842407,141.952698
	C245.834763,143.772949 245.820724,145.624908 245.496552,147.405273
	C244.886139,150.757523 242.808624,152.930618 239.323792,152.711075
	C235.793442,152.488647 233.388428,150.417419 233.278397,146.661133
	C233.107864,140.839264 233.155396,135.010437 233.147308,129.184509
	C233.132080,118.195999 233.162766,107.207405 233.132462,96.218964
	C233.121902,92.390694 233.389999,88.566788 237.888275,87.461418
	C242.328278,86.370361 244.430542,89.477509 246.227570,92.916115
	C253.522263,106.874504 260.882324,120.798721 268.615051,135.489365
	C273.241302,127.021988 277.584503,119.105042 281.896210,111.171005
	C285.464417,104.605125 289.024475,98.034470 292.529724,91.434914
	C294.084625,88.507439 296.261993,86.678940 299.707428,87.425468
	C303.346436,88.213951 304.826599,90.839531 304.834595,94.395370
	C304.855621,103.718941 304.851288,113.042580 304.857056,122.841110
z"/>
<path fill="#F8FCFE" opacity="1.000000" stroke="none"
	d="
M777.646729,92.435448
	C782.016418,96.694267 781.861816,99.025764 777.197754,103.838539
	C767.399536,113.949211 767.725769,128.065384 777.959656,136.810593
	C786.854065,144.411209 799.682251,143.593018 808.072998,134.889969
	C815.843079,126.830635 816.018005,113.914719 808.446350,105.503403
	C807.334106,104.267761 805.986938,103.228889 804.967102,101.927612
	C802.725769,99.067749 802.520996,96.073204 805.305908,93.472961
	C807.987549,90.969238 811.032471,91.008553 813.895203,93.209076
	C825.338623,102.005409 829.559998,119.144508 823.852295,133.370026
	C818.618835,146.413757 804.077637,155.351044 790.109619,154.248245
	C774.701721,153.031784 764.277100,144.986847 759.485962,130.574234
	C754.871399,116.693024 758.341858,104.270813 769.405029,94.522346
	C771.278015,92.871925 774.666016,92.940788 777.646729,92.435448
z"/>
<path fill="#F8FCFE" opacity="1.000000" stroke="none"
	d="
M357.046967,136.009094
	C367.055542,144.417160 379.837402,143.788589 388.194763,134.749527
	C396.231689,126.056999 395.756042,113.015640 387.215729,104.180580
	C385.647888,102.558647 383.716858,100.568588 383.494446,98.576416
	C383.289856,96.743813 384.684753,93.775749 386.242859,92.954666
	C388.037659,92.008812 391.371033,91.984520 393.027191,93.082260
	C409.739471,104.159683 410.781586,132.572830 395.155701,145.409058
	C376.669556,160.594940 353.032867,156.304840 341.307068,135.635437
	C333.960754,122.685776 337.831238,103.147476 349.520325,93.948860
	C352.565094,91.552780 355.651398,90.359451 358.780182,93.568275
	C362.140228,97.014244 360.790283,100.355408 357.846893,103.116867
	C350.388062,110.114708 347.978058,118.381126 351.631653,127.968002
	C352.712769,130.804794 355.034027,133.168976 357.046967,136.009094
z"/>
<path fill="#F8FCFE" opacity="1.000000" stroke="none"
	d="
M448.797668,91.958008
	C452.637177,91.119041 455.684875,92.641678 456.118286,95.754692
	C456.457886,98.193680 455.101929,101.589729 453.340179,103.480621
	C443.579407,113.956841 443.549194,127.702309 453.669281,136.569183
	C462.359833,144.183548 475.461029,143.701477 483.487823,135.471985
	C491.860840,126.887527 492.206329,113.967293 484.277008,105.328186
	C483.263641,104.224113 482.099152,103.254547 481.125031,102.119392
	C478.759827,99.363060 478.271851,96.475761 481.040100,93.697876
	C483.695709,91.033012 486.603271,91.063751 489.547821,93.278473
	C503.000854,103.397148 506.531372,124.473198 497.144470,138.595352
	C483.754852,158.739426 455.476929,159.807861 440.631409,140.730652
	C428.658173,125.344467 432.198669,103.301994 448.797668,91.958008
z"/>
<path fill="#F7FCFE" opacity="1.000000" stroke="none"
	d="
M539.379333,152.642090
	C535.356201,151.499771 534.159729,148.803101 534.157898,145.326370
	C534.149109,128.353485 534.095459,111.380257 534.195068,94.407959
	C534.216125,90.817917 535.693054,87.437302 539.783386,87.444366
	C549.063293,87.460388 558.496704,87.077797 567.584229,88.576302
	C580.099060,90.639961 587.764099,99.033073 590.266785,111.433914
	C592.686890,123.425705 590.674866,134.572266 581.918091,143.832092
	C578.723755,147.209869 575.259216,147.774567 572.368225,145.093689
	C569.105957,142.068558 569.928528,138.872543 572.557129,135.906036
	C577.602112,130.212357 579.608582,123.667892 578.524841,116.112312
	C577.105408,106.216026 572.565063,101.113533 562.694763,99.794502
	C557.679565,99.124283 552.500854,99.677231 546.856628,99.677231
	C546.856628,107.986763 546.857056,116.277061 546.856506,124.567360
	C546.856018,131.223404 546.924072,137.880447 546.829224,144.535156
	C546.763306,149.165375 545.294067,152.773987 539.379333,152.642090
z"/>
<path fill="#A4D5DB" opacity="1.000000" stroke="none"
	d="
M72.999741,120.484528
	C64.173943,120.485588 55.844059,120.642006 47.524055,120.423004
	C43.479198,120.316544 41.883507,121.591736 42.024979,125.819725
	C42.296604,133.937454 42.104042,142.070709 42.104042,150.594482
	C39.681892,150.594482 37.793167,150.594482 35.072144,150.594482
	C35.072144,144.461456 35.071926,138.360123 35.072216,132.258789
	C35.072433,127.596329 35.308647,122.918365 35.002682,118.276108
	C34.736839,114.242577 36.317547,113.141556 40.166389,113.178802
	C56.649960,113.338341 73.137352,113.128349 89.620163,113.322845
	C93.870003,113.372993 95.772903,112.243256 95.418411,107.715553
	C95.094482,103.578140 95.573753,99.380402 95.297218,95.236053
	C94.967461,90.294113 97.022057,88.901337 102.554146,90.609581
	C102.554146,95.019859 102.553162,99.749443 102.554359,104.479034
	C102.556587,113.241425 102.557114,113.243484 111.074959,113.244629
	C126.560982,113.246719 142.048386,113.358963 157.532104,113.170189
	C161.591949,113.120697 163.109543,114.275406 162.983719,118.510231
	C162.706909,127.826950 162.881348,137.157562 162.905319,146.482407
	C162.911636,148.942108 162.989243,151.072281 159.409088,151.086441
	C155.850616,151.100494 155.860413,149.026855 155.873215,146.534973
	C155.909195,139.541489 155.755310,132.544510 155.931595,125.555328
	C156.020035,122.049927 155.044342,120.395531 151.190628,120.434914
	C136.538742,120.584686 121.884117,120.552071 107.231262,120.463631
	C103.801048,120.442924 102.461319,121.812157 102.528183,125.216461
	C102.658958,131.874435 102.581161,138.537094 102.538109,145.197479
	C102.526581,146.980560 102.328598,148.762466 102.202766,150.758179
	C99.972008,150.758179 98.192596,150.758179 95.352287,150.758179
	C95.352287,144.930405 95.352287,139.203751 95.352280,133.477081
	C95.352264,120.486702 95.352272,120.486771 82.491302,120.486610
	C79.494110,120.486572 76.496925,120.485809 72.999741,120.484528
z"/>
<path fill="#F6FCFD" opacity="1.000000" stroke="none"
	d="
M635.553345,111.012871
	C635.553345,121.658646 635.558044,131.805435 635.548462,141.952225
	C635.547058,143.447754 635.578857,144.953979 635.420593,146.436615
	C635.013062,150.254440 632.851379,152.740921 629.018311,152.709732
	C625.003540,152.677048 623.229126,149.795120 623.034851,146.057678
	C622.862366,142.739563 622.982117,139.406021 622.981689,136.079285
	C622.980042,122.439339 622.942017,108.799210 623.001282,95.159523
	C623.026062,89.460831 625.077148,87.277512 630.802917,87.187775
	C640.282043,87.039207 649.765381,87.103317 659.246399,87.162949
	C663.096375,87.187157 666.178406,88.537933 666.635498,92.903664
	C667.033936,96.709267 664.457153,99.504684 659.719482,99.677101
	C651.943054,99.960098 644.148865,99.753746 635.553467,99.753746
	C635.553467,103.676888 635.553467,107.095390 635.553345,111.012871
z"/>
<path fill="#F5FCFD" opacity="1.000000" stroke="none"
	d="
M695.870056,147.837341
	C695.707336,129.789490 695.578125,112.144531 695.608521,94.499855
	C695.615662,90.364311 697.639465,87.111519 702.128174,87.314911
	C706.575134,87.516396 708.073792,90.760971 708.051025,95.013252
	C707.971802,109.813873 708.020386,124.615181 708.020386,139.873947
	C710.425903,139.983261 712.542114,139.907776 714.602844,140.210266
	C718.423462,140.771088 721.341797,142.546509 721.029785,146.949341
	C720.747803,150.928253 718.182861,152.771896 714.325134,152.837601
	C710.494995,152.902863 706.546753,153.421127 702.872070,152.664108
	C700.371033,152.148834 698.251770,149.780228 695.870056,147.837341
z"/>
<path fill="#9FD4DB" opacity="1.000000" stroke="none"
	d="
M113.505516,80.861267
	C104.247856,80.927185 95.436859,80.817230 86.632790,81.015083
	C83.102196,81.094421 81.982071,79.743645 82.046791,76.352539
	C82.202171,68.211884 82.210342,60.063919 82.043251,51.923721
	C81.972633,48.483757 83.197266,47.191029 86.664597,47.259094
	C94.971230,47.422169 103.283302,47.336300 111.592957,47.300426
	C114.016815,47.289963 115.849983,47.677082 115.825951,50.753704
	C115.755844,59.727528 115.855751,68.703178 115.711006,77.675240
	C115.694000,78.728973 114.567253,79.764809 113.505516,80.861267
M108.853745,68.297104
	C108.847595,64.985268 108.787201,61.672367 108.852707,58.361950
	C108.903748,55.782646 108.035507,54.253162 105.174301,54.300018
	C101.035812,54.367786 96.894691,54.366253 92.756058,54.303963
	C89.898788,54.260963 89.033646,55.790340 89.081871,58.371326
	C89.149925,62.012981 89.275299,65.669189 89.035637,69.296684
	C88.782852,73.123001 90.485016,74.258102 94.038979,74.021797
	C97.336281,73.802574 100.672737,73.790283 103.967972,74.024414
	C107.610756,74.283218 109.305908,72.951530 108.853745,68.297104
z"/>
<path fill="#A2D5DB" opacity="1.000000" stroke="none"
	d="
M115.813469,176.996796
	C115.810005,181.160446 115.702881,184.829590 115.836342,188.489975
	C115.943581,191.431534 114.851761,192.726044 111.791862,192.687180
	C103.296272,192.579269 94.797775,192.592133 86.301773,192.683105
	C83.410126,192.714066 82.036171,191.758331 82.078804,188.656143
	C82.195564,180.160782 82.179230,171.662094 82.083664,163.166199
	C82.050781,160.243454 83.050293,158.958008 86.138924,159.006073
	C94.633842,159.138275 103.134560,159.167145 111.627991,158.992966
	C115.053543,158.922714 115.937119,160.449188 115.841675,163.504227
	C115.706482,167.831726 115.811401,172.166733 115.813469,176.996796
M89.655914,184.630264
	C95.670715,184.803284 101.685509,184.976303 107.700310,185.149338
	C108.079979,179.956406 108.690216,174.762344 108.665154,169.571365
	C108.659424,168.383850 106.564125,166.339066 105.257027,166.187775
	C101.327484,165.732925 97.305801,166.157043 93.332512,165.971619
	C90.023659,165.817200 88.909973,167.267380 89.047127,170.399338
	C89.242851,174.868896 89.226219,179.347763 89.655914,184.630264
z"/>
<path fill="#A4D6DB" opacity="1.000000" stroke="none"
	d="
M22.856531,167.083191
	C22.879307,159.058868 22.879307,159.056015 30.372133,159.054306
	C37.516800,159.052689 44.664146,159.173584 51.804935,159.008377
	C55.081081,158.932571 56.182705,160.204453 56.131355,163.388367
	C55.997417,171.693939 55.985111,180.005005 56.139126,188.309906
	C56.199539,191.567703 54.955696,192.722275 51.767494,192.674469
	C43.461620,192.549927 35.151890,192.565460 26.845352,192.664261
	C23.831715,192.700119 22.762060,191.480652 22.820814,188.504288
	C22.958519,181.528549 22.859703,174.548157 22.856531,167.083191
M29.875259,168.820053
	C29.856995,170.318634 29.824980,171.817215 29.822634,173.315811
	C29.803196,185.731873 29.804855,185.731873 42.087059,185.706070
	C49.134315,185.691269 49.134315,185.691269 49.144653,178.592514
	C49.163029,165.976883 49.161568,165.887436 36.585991,166.092636
	C34.378139,166.128662 32.188282,167.267746 29.875259,168.820053
z"/>
<path fill="#A5D6DB" opacity="1.000000" stroke="none"
	d="
M142.177704,160.477173
	C143.408890,159.720093 144.478088,159.124741 145.552826,159.114578
	C154.035004,159.034515 162.519394,159.144318 171.000534,159.020660
	C173.942673,158.977753 175.195374,159.933960 175.147446,163.018829
	C175.015640,171.499695 174.980972,179.986649 175.164230,188.465637
	C175.238510,191.902069 173.702042,192.708496 170.667313,192.668320
	C162.518463,192.560440 154.366150,192.552094 146.217560,192.668564
	C143.077362,192.713440 141.724655,191.657745 141.797745,188.345078
	C141.999420,179.202881 141.961472,170.055405 142.177704,160.477173
M148.853821,168.815384
	C148.834564,170.470337 148.800262,172.125290 148.798492,173.780258
	C148.785706,185.725739 148.787781,185.725739 160.898514,185.708084
	C168.113083,185.697571 168.113068,185.697571 168.119995,178.375824
	C168.131744,165.972076 168.130310,165.883453 155.532349,166.090393
	C153.336670,166.126465 151.159042,167.263580 148.853821,168.815384
z"/>
<path fill="#EFF9FC" opacity="1.000000" stroke="none"
	d="
M303.493103,150.409027
	C299.960510,153.096680 296.607147,154.080887 293.711304,150.303207
	C291.600708,147.549896 291.843658,144.142212 294.447662,142.279434
	C296.154480,141.058472 299.546173,140.863983 301.567719,141.699356
	C305.323578,143.251450 305.319916,146.698196 303.493103,150.409027
z"/>
<path fill="#EFF9FC" opacity="1.000000" stroke="none"
	d="
M553.031494,146.138901
	C553.697021,142.072205 556.130310,139.923477 559.565552,140.543823
	C561.568298,140.905502 564.475830,143.158951 564.685608,144.846054
	C564.964050,147.085632 563.637573,150.345413 561.875488,151.841675
	C558.539734,154.674164 554.118225,151.801682 553.031494,146.138901
z"/>
<path fill="#F6FCFD" opacity="1.000000" stroke="none"
	d="
M930.780518,97.202072
	C928.795532,91.787254 930.050354,88.527260 934.205566,87.476784
	C937.592041,86.620674 941.259521,88.758072 941.385925,92.325012
	C941.456604,94.320862 940.442078,96.954292 938.985901,98.272255
	C936.467468,100.551765 933.468445,99.807068 930.780518,97.202072
z"/>
<path fill="#F6FCFD" opacity="1.000000" stroke="none"
	d="
M734.641785,152.651703
	C730.969482,152.638611 728.170105,151.342773 727.967102,147.836456
	C727.851440,145.839386 728.750549,143.013031 730.211548,141.911819
	C731.673889,140.809616 734.733154,140.661743 736.481323,141.450287
	C738.043579,142.154968 739.982422,145.058075 739.602783,146.366730
	C738.932068,148.678421 736.625244,150.515427 734.641785,152.651703
z"/>
<path fill="#F5FCFD" opacity="1.000000" stroke="none"
	d="
M651.474854,126.477203
	C647.928467,128.461685 644.563110,128.152985 643.076111,124.905907
	C642.136414,122.854149 642.432617,119.129913 643.786499,117.473274
	C644.935669,116.067032 648.697327,115.671478 650.767212,116.384422
	C654.648865,117.721405 654.835083,121.897652 651.474854,126.477203
z"/>
<path fill="#F8FCFE" opacity="1.000000" stroke="none"
	d="
M794.977539,97.050316
	C790.873230,98.795006 788.087402,97.508942 786.511353,94.020973
	C785.094849,90.885986 786.021301,87.618912 789.191223,86.642006
	C791.388794,85.964745 795.070618,86.495865 796.588623,88.000778
	C799.416504,90.804291 798.691956,94.323082 794.977539,97.050316
z"/>
<path fill="#F7FCFE" opacity="1.000000" stroke="none"
	d="
M473.950867,90.401352
	C474.440430,94.515556 472.655792,97.222511 469.168274,97.558449
	C467.170959,97.750839 464.298279,96.410339 463.015808,94.804626
	C460.751068,91.969078 461.673279,88.803284 464.682281,86.692360
	C467.908203,84.429314 471.304596,85.743492 473.950867,90.401352
z"/>
<path fill="#F8FCFE" opacity="1.000000" stroke="none"
	d="
M374.123718,86.087051
	C378.321045,88.470154 379.292847,91.706078 376.763855,95.328957
	C374.701355,98.283569 371.526794,98.847649 368.494568,96.715775
	C365.485626,94.600266 364.676331,91.260689 367.030914,88.573402
	C368.437012,86.968681 371.473755,86.792801 374.123718,86.087051
z"/>
<path fill="#26B0D7" opacity="1.000000" stroke="none"
	d="
M108.851868,68.763184
	C109.305908,72.951530 107.610756,74.283218 103.967972,74.024414
	C100.672737,73.790283 97.336281,73.802574 94.038979,74.021797
	C90.485016,74.258102 88.782852,73.123001 89.035637,69.296684
	C89.275299,65.669189 89.149925,62.012981 89.081871,58.371326
	C89.033646,55.790340 89.898788,54.260963 92.756058,54.303963
	C96.894691,54.366253 101.035812,54.367786 105.174301,54.300018
	C108.035507,54.253162 108.903748,55.782646 108.852707,58.361950
	C108.787201,61.672367 108.847595,64.985268 108.851868,68.763184
z"/>
<path fill="#26B0D7" opacity="1.000000" stroke="none"
	d="
M89.478104,184.226456
	C89.226219,179.347763 89.242851,174.868896 89.047127,170.399338
	C88.909973,167.267380 90.023659,165.817200 93.332512,165.971619
	C97.305801,166.157043 101.327484,165.732925 105.257027,166.187775
	C106.564125,166.339066 108.659424,168.383850 108.665154,169.571365
	C108.690216,174.762344 108.079979,179.956406 107.700310,185.149338
	C101.685509,184.976303 95.670715,184.803284 89.478104,184.226456
z"/>
<path fill="#22AFD7" opacity="1.000000" stroke="none"
	d="
M29.932688,168.358734
	C32.188282,167.267746 34.378139,166.128662 36.585991,166.092636
	C49.161568,165.887436 49.163029,165.976883 49.144653,178.592514
	C49.134315,185.691269 49.134315,185.691269 42.087059,185.706070
	C29.804855,185.731873 29.803196,185.731873 29.822634,173.315811
	C29.824980,171.817215 29.856995,170.318634 29.932688,168.358734
z"/>
<path fill="#22AFD7" opacity="1.000000" stroke="none"
	d="
M148.913452,168.353775
	C151.159042,167.263580 153.336670,166.126465 155.532349,166.090393
	C168.130310,165.883453 168.131744,165.972076 168.119995,178.375824
	C168.113068,185.697571 168.113083,185.697571 160.898514,185.708084
	C148.787781,185.725739 148.785706,185.725739 148.798492,173.780258
	C148.800262,172.125290 148.834564,170.470337 148.913452,168.353775
z"/>
</svg>
